<svg id="visual" viewBox="0 0 900 600" width="900" height="600" xmlns="http://www.w3.org/2000/svg" xmlns:xlink="http://www.w3.org/1999/xlink" version="1.1"><path d="M0 157L13.7 155C27.3 153 54.7 149 82 135C109.3 121 136.7 97 163.8 90C191 83 218 93 245.2 107C272.3 121 299.7 139 327 131C354.3 123 381.7 89 409 83C436.3 77 463.7 99 491 118C518.3 137 545.7 153 573 147C600.3 141 627.7 113 654.8 97C682 81 709 77 736.2 77C763.3 77 790.7 81 818 89C845.3 97 872.7 109 886.3 115L900 121L900 0L886.3 0C872.7 0 845.3 0 818 0C790.7 0 763.3 0 736.2 0C709 0 682 0 654.8 0C627.7 0 600.3 0 573 0C545.7 0 518.3 0 491 0C463.7 0 436.3 0 409 0C381.7 0 354.3 0 327 0C299.7 0 272.3 0 245.2 0C218 0 191 0 163.8 0C136.7 0 109.3 0 82 0C54.7 0 27.3 0 13.7 0L0 0Z" fill="#6198ff"></path><path d="M0 307L13.7 308C27.3 309 54.7 311 82 308C109.3 305 136.7 297 163.8 289C191 281 218 273 245.2 291C272.3 309 299.7 353 327 354C354.3 355 381.7 313 409 284C436.3 255 463.7 239 491 237C518.3 235 545.7 247 573 270C600.3 293 627.7 327 654.8 336C682 345 709 329 736.2 325C763.3 321 790.7 329 818 328C845.3 327 872.7 317 886.3 312L900 307L900 119L886.3 113C872.7 107 845.3 95 818 87C790.7 79 763.3 75 736.2 75C709 75 682 79 654.8 95C627.7 111 600.3 139 573 145C545.7 151 518.3 135 491 116C463.7 97 436.3 75 409 81C381.7 87 354.3 121 327 129C299.7 137 272.3 119 245.2 105C218 91 191 81 163.8 88C136.7 95 109.3 119 82 133C54.7 147 27.3 151 13.7 153L0 155Z" fill="#3c80ff"></path><path d="M0 385L13.7 389C27.3 393 54.7 401 82 401C109.3 401 136.7 393 163.8 380C191 367 218 349 245.2 361C272.3 373 299.7 415 327 418C354.3 421 381.7 385 409 358C436.3 331 463.7 313 491 306C518.3 299 545.7 303 573 323C600.3 343 627.7 379 654.8 393C682 407 709 399 736.2 395C763.3 391 790.7 391 818 383C845.3 375 872.7 359 886.3 351L900 343L900 305L886.3 310C872.7 315 845.3 325 818 326C790.7 327 763.3 319 736.2 323C709 327 682 343 654.8 334C627.7 325 600.3 291 573 268C545.7 245 518.3 233 491 235C463.7 237 436.3 253 409 282C381.7 311 354.3 353 327 352C299.7 351 272.3 307 245.2 289C218 271 191 279 163.8 287C136.7 295 109.3 303 82 306C54.7 309 27.3 307 13.7 306L0 305Z" fill="#0066ff"></path><path d="M0 445L13.7 451C27.3 457 54.7 469 82 472C109.3 475 136.7 469 163.8 451C191 433 218 403 245.2 410C272.3 417 299.7 461 327 469C354.3 477 381.7 449 409 427C436.3 405 463.7 389 491 384C518.3 379 545.7 385 573 401C600.3 417 627.7 443 654.8 460C682 477 709 485 736.2 479C763.3 473 790.7 453 818 439C845.3 425 872.7 417 886.3 413L900 409L900 341L886.3 349C872.7 357 845.3 373 818 381C790.7 389 763.3 389 736.2 393C709 397 682 405 654.8 391C627.7 377 600.3 341 573 321C545.7 301 518.3 297 491 304C463.7 311 436.3 329 409 356C381.7 383 354.3 419 327 416C299.7 413 272.3 371 245.2 359C218 347 191 365 163.8 378C136.7 391 109.3 399 82 399C54.7 399 27.3 391 13.7 387L0 383Z" fill="#0059dd"></path><path d="M0 601L13.7 601C27.3 601 54.7 601 82 601C109.3 601 136.7 601 163.8 601C191 601 218 601 245.2 601C272.3 601 299.7 601 327 601C354.3 601 381.7 601 409 601C436.3 601 463.7 601 491 601C518.3 601 545.7 601 573 601C600.3 601 627.7 601 654.8 601C682 601 709 601 736.2 601C763.3 601 790.7 601 818 601C845.3 601 872.7 601 886.3 601L900 601L900 407L886.3 411C872.7 415 845.3 423 818 437C790.7 451 763.3 471 736.2 477C709 483 682 475 654.8 458C627.7 441 600.3 415 573 399C545.7 383 518.3 377 491 382C463.7 387 436.3 403 409 425C381.7 447 354.3 475 327 467C299.7 459 272.3 415 245.2 408C218 401 191 431 163.8 449C136.7 467 109.3 473 82 470C54.7 467 27.3 455 13.7 449L0 443Z" fill="#004cbb"></path></svg>